<mxfile host="app.diagrams.net" agent="Mozilla/5.0 (Windows NT 10.0; Win64; x64) AppleWebKit/537.36 (KHTML, like Gecko) Chrome/130.0.0.0 Safari/537.36" version="24.8.2">
  <diagram id="C5RBs43oDa-KdzZeNtuy" name="Page-1">
    <mxGraphModel dx="1469" dy="629" grid="1" gridSize="10" guides="1" tooltips="1" connect="1" arrows="1" fold="1" page="1" pageScale="1" pageWidth="827" pageHeight="1169" math="0" shadow="0">
      <root>
        <mxCell id="WIyWlLk6GJQsqaUBKTNV-0" />
        <mxCell id="WIyWlLk6GJQsqaUBKTNV-1" parent="WIyWlLk6GJQsqaUBKTNV-0" />
        <mxCell id="lV4xHLILFwQDnbAg39aF-20" style="edgeStyle=orthogonalEdgeStyle;rounded=0;orthogonalLoop=1;jettySize=auto;html=1;exitX=0.5;exitY=1;exitDx=0;exitDy=0;entryX=0.5;entryY=0;entryDx=0;entryDy=0;" parent="WIyWlLk6GJQsqaUBKTNV-1" source="lV4xHLILFwQDnbAg39aF-2" target="lV4xHLILFwQDnbAg39aF-7" edge="1">
          <mxGeometry relative="1" as="geometry" />
        </mxCell>
        <mxCell id="lV4xHLILFwQDnbAg39aF-2" value="Download&lt;div&gt;Pre/Post Storm&lt;/div&gt;&lt;div&gt;LiDar&lt;/div&gt;" style="rounded=1;whiteSpace=wrap;html=1;" parent="WIyWlLk6GJQsqaUBKTNV-1" vertex="1">
          <mxGeometry x="210" y="100" width="120" height="60" as="geometry" />
        </mxCell>
        <mxCell id="lV4xHLILFwQDnbAg39aF-21" style="edgeStyle=orthogonalEdgeStyle;rounded=0;orthogonalLoop=1;jettySize=auto;html=1;exitX=0.5;exitY=1;exitDx=0;exitDy=0;entryX=0.5;entryY=0;entryDx=0;entryDy=0;" parent="WIyWlLk6GJQsqaUBKTNV-1" source="lV4xHLILFwQDnbAg39aF-7" target="lV4xHLILFwQDnbAg39aF-8" edge="1">
          <mxGeometry relative="1" as="geometry">
            <mxPoint x="270" y="270" as="targetPoint" />
          </mxGeometry>
        </mxCell>
        <mxCell id="lV4xHLILFwQDnbAg39aF-7" value="Convert Las&lt;div&gt;Tool&lt;/div&gt;" style="rounded=1;whiteSpace=wrap;html=1;" parent="WIyWlLk6GJQsqaUBKTNV-1" vertex="1">
          <mxGeometry x="210" y="205" width="120" height="60" as="geometry" />
        </mxCell>
        <mxCell id="lV4xHLILFwQDnbAg39aF-22" value="" style="edgeStyle=orthogonalEdgeStyle;rounded=0;orthogonalLoop=1;jettySize=auto;html=1;entryX=0.5;entryY=0;entryDx=0;entryDy=0;" parent="WIyWlLk6GJQsqaUBKTNV-1" source="lV4xHLILFwQDnbAg39aF-8" target="lV4xHLILFwQDnbAg39aF-9" edge="1">
          <mxGeometry relative="1" as="geometry">
            <mxPoint x="270" y="361" as="targetPoint" />
          </mxGeometry>
        </mxCell>
        <mxCell id="lV4xHLILFwQDnbAg39aF-8" value="Create Las Dataset&lt;div&gt;Tool&lt;/div&gt;&lt;div&gt;(Projected in&lt;/div&gt;&lt;div&gt;this step)&lt;/div&gt;" style="rounded=1;whiteSpace=wrap;html=1;" parent="WIyWlLk6GJQsqaUBKTNV-1" vertex="1">
          <mxGeometry x="210" y="309" width="120" height="60" as="geometry" />
        </mxCell>
        <mxCell id="lV4xHLILFwQDnbAg39aF-24" style="edgeStyle=orthogonalEdgeStyle;rounded=0;orthogonalLoop=1;jettySize=auto;html=1;entryX=0.5;entryY=0;entryDx=0;entryDy=0;" parent="WIyWlLk6GJQsqaUBKTNV-1" source="lV4xHLILFwQDnbAg39aF-9" target="lV4xHLILFwQDnbAg39aF-10" edge="1">
          <mxGeometry relative="1" as="geometry" />
        </mxCell>
        <mxCell id="lV4xHLILFwQDnbAg39aF-9" value="Extract las" style="rounded=1;whiteSpace=wrap;html=1;" parent="WIyWlLk6GJQsqaUBKTNV-1" vertex="1">
          <mxGeometry x="210" y="414" width="120" height="60" as="geometry" />
        </mxCell>
        <mxCell id="lV4xHLILFwQDnbAg39aF-25" style="edgeStyle=orthogonalEdgeStyle;rounded=0;orthogonalLoop=1;jettySize=auto;html=1;entryX=0.5;entryY=0;entryDx=0;entryDy=0;" parent="WIyWlLk6GJQsqaUBKTNV-1" source="lV4xHLILFwQDnbAg39aF-10" target="lV4xHLILFwQDnbAg39aF-19" edge="1">
          <mxGeometry relative="1" as="geometry" />
        </mxCell>
        <mxCell id="lV4xHLILFwQDnbAg39aF-10" value="Las Dataset to Raster&lt;div&gt;Tool&lt;/div&gt;" style="rounded=1;whiteSpace=wrap;html=1;" parent="WIyWlLk6GJQsqaUBKTNV-1" vertex="1">
          <mxGeometry x="210" y="518" width="120" height="60" as="geometry" />
        </mxCell>
        <mxCell id="lV4xHLILFwQDnbAg39aF-19" value="Pre and Post DEM Data" style="rounded=1;whiteSpace=wrap;html=1;" parent="WIyWlLk6GJQsqaUBKTNV-1" vertex="1">
          <mxGeometry x="210" y="623" width="120" height="60" as="geometry" />
        </mxCell>
      </root>
    </mxGraphModel>
  </diagram>
</mxfile>
